<svg width="16" height="17" viewBox="0 0 16 17" fill="none" xmlns="http://www.w3.org/2000/svg">
<g id="refresh" clip-path="url(#clip0_31_1034)">
<path id="Vector" d="M12.9425 3.723C11.6729 2.45425 9.93058 1.66675 7.99562 1.66675C4.1257 1.66675 1 4.79925 1 8.66675C1 12.5342 4.1257 15.6667 7.99562 15.6667C11.2614 15.6667 13.9844 13.4355 14.7636 10.4167H12.9425C12.2245 12.4555 10.2808 13.9167 7.99562 13.9167C5.09756 13.9167 2.74234 11.563 2.74234 8.66675C2.74234 5.7705 5.09756 3.41675 7.99562 3.41675C9.44903 3.41675 10.7448 4.0205 11.6904 4.97425L8.87117 7.79175H15V1.66675L12.9425 3.723Z" fill="#BE2601"/>
</g>
<defs>
<clipPath id="clip0_31_1034">
<rect width="16" height="16" fill="white" transform="translate(0 0.666748)"/>
</clipPath>
</defs>
</svg>
