<svg width="25" height="25" viewBox="0 0 25 25" fill="none" xmlns="http://www.w3.org/2000/svg">
<g id="24 / call / call-phone">
<path id="icon" fill-rule="evenodd" clip-rule="evenodd" d="M11.3565 9.06212C11.8746 8.3591 12.0604 7.61818 11.4744 6.96417C10.1595 5.11151 9.27515 3.96584 8.72044 3.41411C7.66589 2.36519 5.93112 2.50708 5.01779 3.41321C4.52723 3.8999 4.36116 4.06703 3.85747 4.58217C1.05182 7.40867 2.76285 13.3838 7.31139 17.9682C11.8589 22.5515 17.7926 24.2753 20.6041 21.4428C21.0689 20.9916 21.4624 20.5952 21.7728 20.2649C22.6678 19.3123 22.8037 17.6426 21.7669 16.5579C21.2354 16.0018 20.1503 15.1544 18.2329 13.7734C17.6457 13.2447 16.9494 13.3593 16.311 13.7809C16.004 13.9838 15.7805 14.189 15.3585 14.6143L14.5923 15.3862C14.4914 15.4879 13.121 14.7969 11.7907 13.4561C10.4597 12.1146 9.7739 10.7347 9.87435 10.6336L10.6411 9.86111C10.775 9.72618 10.839 9.66085 10.9211 9.57399C11.0921 9.39302 11.2337 9.2288 11.3565 9.06212ZM16.0057 16.8102L16.7721 16.0381C17.0044 15.804 17.1549 15.6601 17.2773 15.5609C18.957 16.7754 19.9297 17.5391 20.3271 17.9548C20.5656 18.2043 20.5286 18.6597 20.3212 18.8805C20.0342 19.1859 19.6613 19.5615 19.2037 20.0059C17.3857 21.8372 12.5959 20.4458 8.72513 16.5445C4.85315 12.642 3.47188 7.8185 5.2762 6.00075C5.77786 5.48774 5.9368 5.32778 6.42035 4.84803C6.60166 4.66816 7.09552 4.62777 7.31608 4.84714C7.74314 5.27192 8.53534 6.29326 9.70071 7.92779C9.64038 8.0032 9.56503 8.08843 9.47333 8.18546C9.40603 8.25668 9.34996 8.31391 9.22738 8.43746L8.46136 9.20918C7.15821 10.5212 8.26802 12.7542 10.377 14.8798C12.4845 17.0039 14.703 18.1226 16.0057 16.8102Z" fill="black"/>
</g>
</svg>
