<svg width="100" height="101" viewBox="0 0 100 101" fill="none" xmlns="http://www.w3.org/2000/svg">
<g id="Quote Icon">
<path id="&#226;&#128;&#156;" d="M36.2815 18.3223C21.1111 33.0186 14 48.663 14 62.6482C14 74.026 22.5333 82.3223 31.0667 82.3223C38.6519 82.3223 44.8148 76.1593 44.8148 68.5741C44.8148 58.8556 37.7037 53.8778 27.2741 53.8778C27.2741 42.263 30.8296 35.3889 41.9704 24.0112L36.2815 18.3223ZM75.8667 18.3223C60.6963 33.0186 53.5852 48.663 53.5852 62.6482C53.5852 74.026 62.1185 82.3223 70.6519 82.3223C78.237 82.3223 84.4 76.1593 84.4 68.5741C84.4 58.8556 77.2889 53.8778 66.8593 53.8778C66.8593 42.263 70.4148 35.3889 81.5556 24.0112L75.8667 18.3223Z" fill="#FFAD25"/>
</g>
</svg>
