<svg width="24" height="25" viewBox="0 0 24 25" fill="none" xmlns="http://www.w3.org/2000/svg">
<g id="fe:search">
<path id="Vector" fill-rule="evenodd" clip-rule="evenodd" d="M16.325 15.2323L21.705 20.6123C21.8941 20.8016 22.0003 21.0582 22.0002 21.3257C22.0001 21.5932 21.8937 21.8497 21.7045 22.0388C21.5153 22.2279 21.2587 22.3341 20.9912 22.334C20.7236 22.3339 20.4671 22.2276 20.278 22.0383L14.898 16.6583C13.2897 17.904 11.2673 18.4902 9.24214 18.2977C7.21699 18.1052 5.34124 17.1484 3.99649 15.6219C2.65174 14.0955 1.939 12.1141 2.00326 10.0809C2.06753 8.04762 2.90396 6.1152 4.34242 4.67674C5.78087 3.23829 7.71329 2.40185 9.74656 2.33759C11.7798 2.27333 13.7612 2.98607 15.2876 4.33082C16.814 5.67557 17.7708 7.55131 17.9634 9.57646C18.1559 11.6016 17.5697 13.624 16.324 15.2323H16.325ZM10 16.3333C11.5913 16.3333 13.1174 15.7012 14.2427 14.576C15.3679 13.4508 16 11.9246 16 10.3333C16 8.74204 15.3679 7.21591 14.2427 6.0907C13.1174 4.96548 11.5913 4.33334 10 4.33334C8.40871 4.33334 6.88259 4.96548 5.75737 6.0907C4.63215 7.21591 4.00001 8.74204 4.00001 10.3333C4.00001 11.9246 4.63215 13.4508 5.75737 14.576C6.88259 15.7012 8.40871 16.3333 10 16.3333Z" fill="#363636"/>
</g>
</svg>
