<svg width="24" height="25" viewBox="0 0 24 25" fill="none" xmlns="http://www.w3.org/2000/svg">
<g id="tiktok">
<path id="Vector" d="M19.2001 11.5067V8.66674C17.8701 8.66674 16.8551 8.31174 16.2001 7.62174C15.5278 6.83426 15.1512 5.83701 15.1351 4.80174V4.59674L12.4501 4.53174C12.4501 4.53174 12.4501 4.64674 12.4501 4.80174V16.0667C12.3579 16.57 12.1136 17.0329 11.7501 17.393C11.3866 17.753 10.9214 17.9928 10.4172 18.0801C9.91308 18.1673 9.3943 18.0978 8.93092 17.8809C8.46755 17.6639 8.08189 17.3101 7.82601 16.867C7.57013 16.4239 7.45634 15.913 7.50002 15.4033C7.5437 14.8935 7.74273 14.4094 8.07025 14.0163C8.39777 13.6233 8.83801 13.3402 9.33153 13.2052C9.82505 13.0703 10.3481 13.09 10.8301 13.2617V10.5117C10.549 10.4657 10.2648 10.4423 9.98005 10.4417C8.95554 10.4417 7.95404 10.7455 7.1022 11.3147C6.25035 11.8839 5.58642 12.6929 5.19436 13.6394C4.80229 14.586 4.69971 15.6275 4.89958 16.6323C5.09945 17.6371 5.5928 18.5601 6.31724 19.2846C7.04167 20.009 7.96466 20.5023 8.96948 20.7022C9.9743 20.9021 11.0158 20.7995 11.9624 20.4074C12.9089 20.0154 13.7179 19.3514 14.2871 18.4996C14.8563 17.6477 15.1601 16.6462 15.1601 15.6217C15.1595 15.4095 15.1461 15.1974 15.1201 14.9867V10.4117C16.341 11.1742 17.7614 11.5554 19.2001 11.5067Z" fill="white"/>
</g>
</svg>
