<svg width="24" height="25" viewBox="0 0 24 25" fill="none" xmlns="http://www.w3.org/2000/svg">
<g id="Vk">
<path id="Vector" d="M11.786 18.6204H12.9811C12.9811 18.6204 13.3424 18.5818 13.5261 18.3903C13.6961 18.2143 13.6899 17.8841 13.6899 17.8841C13.6899 17.8841 13.6661 16.3381 14.4112 16.1104C15.145 15.8862 16.0876 17.6046 17.0864 18.2661C17.8414 18.7662 18.4152 18.6566 18.4152 18.6566L21.0867 18.6204C21.0867 18.6204 22.4843 18.5373 21.8217 17.4781C21.768 17.3913 21.4355 16.6948 19.8353 15.2632C18.1602 13.7642 18.3852 14.0076 20.4029 11.4156C21.6317 9.83708 22.123 8.87307 21.9692 8.46095C21.823 8.06812 20.9192 8.17175 20.9192 8.17175L17.9139 8.18862C17.9139 8.18862 17.6914 8.1597 17.5252 8.2549C17.3639 8.34889 17.2601 8.56579 17.2601 8.56579C17.2601 8.56579 16.7839 9.78767 16.1488 10.8264C14.81 13.0183 14.2737 13.134 14.0549 12.9978C13.5461 12.6809 13.6736 11.7229 13.6736 11.0433C13.6736 8.91886 14.0074 8.03317 13.0223 7.80422C12.6948 7.72831 12.4548 7.6777 11.6185 7.66926C10.5459 7.65842 9.63709 7.67288 9.1233 7.91508C8.78078 8.07655 8.51701 8.43685 8.67827 8.45734C8.87703 8.48264 9.32707 8.57422 9.56583 8.88753C9.87461 9.29121 9.86336 10.1998 9.86336 10.1998C9.86336 10.1998 10.0409 12.7002 9.44958 13.0111C9.0433 13.2244 8.48701 12.7894 7.29317 10.7999C6.68187 9.78165 6.21934 8.65496 6.21934 8.65496C6.21934 8.65496 6.13058 8.44529 5.97182 8.33322C5.77931 8.19706 5.50929 8.15367 5.50929 8.15367L2.65158 8.17055C2.65158 8.17055 2.2228 8.1826 2.06528 8.36214C1.92527 8.52241 2.05403 8.85258 2.05403 8.85258C2.05403 8.85258 4.2917 13.898 6.82438 16.4417C9.1483 18.7734 11.786 18.6204 11.786 18.6204Z" fill="white"/>
</g>
</svg>
