<svg width="24" height="25" viewBox="0 0 24 25" fill="none" xmlns="http://www.w3.org/2000/svg">
<g id="Telegram">
<path id="Vector" d="M16.1139 9.95778C16.6659 9.40578 17.2139 8.11778 14.9139 9.68178C11.6459 11.9368 8.42492 14.0538 8.42492 14.0538C8.09336 14.2037 7.73491 14.2851 7.37112 14.293C7.00732 14.3009 6.64568 14.2352 6.30792 14.0998C4.92792 13.6858 3.31692 13.1338 3.31692 13.1338C3.31692 13.1338 2.21692 12.4428 4.09992 11.7068C4.09992 11.7068 12.0609 8.43978 14.8219 7.28878C15.8799 6.82878 19.4689 5.35678 19.4689 5.35678C19.4689 5.35678 21.1259 4.71178 20.9879 6.27678C20.9419 6.92078 20.5739 9.17678 20.2059 11.6148C19.6529 15.0658 19.0549 18.8398 19.0549 18.8398C19.0549 18.8398 18.9629 19.8978 18.1809 20.0818C17.3438 20.0676 16.535 19.7764 15.8809 19.2538C15.6969 19.1158 12.4299 17.0448 11.2329 16.0328C11.1112 15.9503 11.0122 15.8384 10.9454 15.7074C10.8785 15.5764 10.8458 15.4306 10.8504 15.2836C10.855 15.1366 10.8967 14.9932 10.9716 14.8666C11.0465 14.7401 11.1522 14.6345 11.2789 14.5598C12.9389 13.0418 14.9179 11.1548 16.1139 9.95778Z" fill="white"/>
</g>
</svg>
