<svg width="24" height="25" viewBox="0 0 24 25" fill="none" xmlns="http://www.w3.org/2000/svg">
<g id="youtube">
<path id="Vector" d="M23 10.3767C23.0495 8.94539 22.7365 7.52475 22.09 6.24673C21.6514 5.72233 21.0427 5.36844 20.37 5.24673C17.5875 4.99426 14.7936 4.89078 12 4.93673C9.21667 4.88869 6.43274 4.98883 3.66003 5.23673C3.11185 5.33645 2.60454 5.59357 2.20003 5.97673C1.30003 6.80673 1.20003 8.22673 1.10003 9.42673C0.954939 11.5843 0.954939 13.7492 1.10003 15.9067C1.12896 16.5821 1.22952 17.2526 1.40003 17.9067C1.5206 18.4118 1.76455 18.8791 2.11003 19.2667C2.51729 19.6702 3.03641 19.9419 3.60003 20.0467C5.75594 20.3128 7.92824 20.4231 10.1 20.3767C13.6 20.4267 16.67 20.3767 20.3 20.0967C20.8775 19.9984 21.4112 19.7263 21.83 19.3167C22.11 19.0366 22.3191 18.6938 22.44 18.3167C22.7977 17.2193 22.9733 16.0708 22.96 14.9167C23 14.3567 23 10.9767 23 10.3767ZM9.74003 15.5167V9.32673L15.66 12.4367C14 13.3567 11.81 14.3967 9.74003 15.5167Z" fill="white"/>
</g>
</svg>
