<svg width="24" height="24" viewBox="-3.5 -3.5 24 24" fill="none" xmlns="http://www.w3.org/2000/svg">
<g id="Eye">
<g id="Octicons">
<g id="eye">
<path id="Shape" fill-rule="evenodd" clip-rule="evenodd" d="M8.55016 3.66675C4.3335 3.66675 1.8335 8.66675 1.8335 8.66675C1.8335 8.66675 4.3335 13.6667 8.55016 13.6667C12.6668 13.6667 15.1668 8.66675 15.1668 8.66675C15.1668 8.66675 12.6668 3.66675 8.55016 3.66675ZM8.50016 12.0001C6.66683 12.0001 5.16683 10.5167 5.16683 8.66675C5.16683 6.83341 6.66683 5.33341 8.50016 5.33341C10.3502 5.33341 11.8335 6.83341 11.8335 8.66675C11.8335 10.5167 10.3502 12.0001 8.50016 12.0001ZM10.1668 8.66675C10.1668 9.59175 9.42516 10.3334 8.50016 10.3334C7.57516 10.3334 6.8335 9.59175 6.8335 8.66675C6.8335 7.74175 7.57516 7.00008 8.50016 7.00008C9.42516 7.00008 10.1668 7.74175 10.1668 8.66675Z" fill="#363636"/>
</g>
</g>
</g>
</svg>
